<?xml version="1.0" standalone="no"?><!DOCTYPE svg PUBLIC "-//W3C//DTD SVG 1.1//EN" "http://www.w3.org/Graphics/SVG/1.1/DTD/svg11.dtd"><svg t="1742100217409" class="icon" viewBox="0 0 1024 1024" version="1.1" xmlns="http://www.w3.org/2000/svg" p-id="2319" xmlns:xlink="http://www.w3.org/1999/xlink" width="200" height="200"><path d="M274.005333 736h526.037334a64.768 64.768 0 0 0 64-64V256a64.810667 64.810667 0 0 0-64-64H224A64.810667 64.810667 0 0 0 160 256v571.008l113.962667-91.008z m22.016 64l-148.053333 118.016c-10.666667 8.021333-21.802667 9.173333-33.450667 3.498667-11.690667-5.674667-17.877333-15.189333-18.517333-28.501334V256c0.64-36.010667 13.141333-66.176 37.504-90.496 24.32-24.32 54.528-36.821333 90.496-37.504h576c36.010667 0.64 66.176 13.141333 90.496 37.504 24.32 24.32 36.821333 54.528 37.504 90.496v416c-0.64 36.010667-13.141333 66.176-37.504 90.496-24.32 24.32-54.485333 36.821333-90.496 37.504H295.978667zM512 498.986667a49.493333 49.493333 0 0 1-50.986667-50.986667A49.493333 49.493333 0 0 1 512 397.013333a49.493333 49.493333 0 0 1 50.986667 50.986667A49.493333 49.493333 0 0 1 512 498.986667z m192 0a49.493333 49.493333 0 0 1-50.986667-50.986667A49.493333 49.493333 0 0 1 704 397.013333a49.493333 49.493333 0 0 1 50.986667 50.986667 49.493333 49.493333 0 0 1-50.986667 50.986667z m-384 0A49.493333 49.493333 0 0 1 268.970667 448 49.493333 49.493333 0 0 1 320 397.013333 49.493333 49.493333 0 0 1 370.986667 448 49.493333 49.493333 0 0 1 320 498.986667z" fill="#08080A" fill-opacity=".96" p-id="2320"></path></svg>