<?xml version="1.0" standalone="no"?><!DOCTYPE svg PUBLIC "-//W3C//DTD SVG 1.1//EN" "http://www.w3.org/Graphics/SVG/1.1/DTD/svg11.dtd"><svg t="1742100461494" class="icon" viewBox="0 0 1024 1024" version="1.1" xmlns="http://www.w3.org/2000/svg" p-id="3282" xmlns:xlink="http://www.w3.org/1999/xlink" width="200" height="200"><path d="M832 512a31.146667 31.146667 0 0 1 8.96-23.04 31.146667 31.146667 0 0 1 23.04-8.96 31.146667 31.146667 0 0 1 23.04 8.96c5.973333 6.016 8.96 13.696 8.96 23.04v352a31.146667 31.146667 0 0 1-8.96 23.04 31.146667 31.146667 0 0 1-23.04 8.96H160a31.146667 31.146667 0 0 1-23.04-8.96 31.146667 31.146667 0 0 1-8.96-23.04V160a31.146667 31.146667 0 0 1 8.96-23.04 31.146667 31.146667 0 0 1 23.04-8.96H512a31.146667 31.146667 0 0 1 23.04 8.96c5.973333 6.016 8.96 13.696 8.96 23.04a31.146667 31.146667 0 0 1-8.96 23.04 31.146667 31.146667 0 0 1-23.04 8.96H192v640h640V512z m-361.984 42.026667l52.992-7.04 324.010667-324.949334a30.037333 30.037333 0 0 0 8.533333-30.506666 29.781333 29.781333 0 0 0-22.528-22.485334 29.781333 29.781333 0 0 0-31.018667 7.978667l-324.992 324.010667-6.997333 52.992z m421.973333-422.016c18.688 18.645333 28.032 41.173333 28.032 67.498666 0 26.325333-9.386667 49.152-28.032 68.48l-331.008 331.008a35.328 35.328 0 0 1-18.986666 10.026667l-105.002667 15.018667a30.208 30.208 0 0 1-27.008-9.514667 32.085333 32.085333 0 0 1-8.96-27.477333l14.976-105.002667a26.154667 26.154667 0 0 1 8.96-18.005333l332.032-331.989334c19.328-18.688 41.813333-28.032 67.498667-28.032 25.642667 0 48.128 9.344 67.456 28.032l0.042666-0.042666z" fill="#ffffff" fill-opacity=".96" p-id="3283"></path></svg>